<?xml version="1.0" standalone="no"?>
<!DOCTYPE svg PUBLIC "-//W3C//DTD SVG 20010904//EN"
 "http://www.w3.org/TR/2001/REC-SVG-20010904/DTD/svg10.dtd">
<svg version="1.0" xmlns="http://www.w3.org/2000/svg"
 width="1600.000000pt" height="1120.000000pt" viewBox="0 0 1600.000000 1120.000000"
 preserveAspectRatio="xMidYMid meet">

<g transform="translate(0.000000,1120.000000) scale(0.100000,-0.100000)"
fill="#000000" stroke="none">
<path d="M7548 10389 c-2 -5 -53 -15 -113 -20 -61 -5 -123 -14 -140 -19 -16
-5 -59 -12 -95 -16 -36 -4 -82 -13 -104 -20 -21 -8 -48 -14 -61 -14 -12 0 -53
-9 -91 -20 -38 -12 -94 -28 -124 -37 -110 -32 -266 -84 -292 -99 -14 -7 -31
-14 -38 -14 -10 0 -48 -15 -140 -57 -19 -9 -42 -20 -50 -24 -8 -5 -35 -18 -60
-29 -25 -11 -55 -26 -67 -33 -12 -6 -46 -25 -75 -41 -29 -15 -72 -41 -96 -57
-24 -16 -46 -29 -50 -30 -4 0 -34 -20 -67 -45 -102 -75 -107 -77 -185 -65 -83
13 -349 14 -405 1 -22 -5 -62 -14 -90 -20 -27 -6 -61 -17 -75 -24 -14 -8 -40
-17 -57 -21 -18 -3 -33 -10 -33 -15 0 -5 -13 -11 -30 -15 -16 -4 -30 -10 -30
-15 0 -5 -10 -12 -22 -16 -60 -18 -208 -153 -289 -261 -79 -105 -181 -257
-192 -286 -3 -8 -18 -35 -33 -59 -76 -118 -274 -519 -274 -553 0 -8 -4 -16
-10 -20 -5 -3 -14 -20 -19 -38 -5 -18 -21 -63 -36 -102 -14 -38 -30 -83 -35
-100 -4 -16 -13 -43 -18 -60 -26 -79 -43 -138 -52 -177 -5 -24 -13 -63 -19
-88 -35 -161 -43 -234 -43 -410 -1 -158 2 -198 21 -271 49 -194 101 -291 220
-410 120 -119 211 -177 366 -231 80 -29 321 -32 374 -5 19 9 40 17 46 17 13 0
103 41 140 63 95 57 218 169 331 300 23 27 45 44 48 39 3 -5 6 -153 7 -328 0
-176 5 -346 9 -379 15 -105 39 -249 51 -295 26 -101 52 -187 65 -217 8 -17 14
-36 14 -42 0 -10 10 -36 50 -127 10 -22 15 -46 11 -53 -5 -8 -68 -11 -232 -9
l-224 3 -8 80 c-8 73 -39 199 -59 235 -4 8 -13 26 -18 40 -15 35 -29 58 -73
117 -42 57 -165 173 -184 173 -7 0 -13 3 -13 8 0 15 -126 73 -223 102 -58 18
-88 21 -205 17 -160 -4 -204 -15 -352 -85 -85 -41 -201 -147 -268 -244 -40
-58 -102 -189 -102 -214 0 -11 -7 -37 -15 -59 -19 -54 -20 -259 -1 -317 8 -24
17 -56 21 -73 13 -57 68 -160 127 -236 32 -42 58 -81 58 -88 0 -6 -24 -40 -52
-76 -49 -58 -68 -91 -112 -183 -94 -202 -63 -530 68 -716 155 -220 386 -346
636 -346 52 0 113 5 135 11 22 5 58 14 80 20 22 5 49 14 60 19 11 5 33 14 49
20 16 6 61 32 99 57 198 131 320 333 344 568 l8 80 715 5 715 5 85 -43 c47
-24 92 -47 100 -51 21 -11 98 -46 142 -65 20 -9 41 -16 48 -16 7 0 24 -6 38
-14 50 -25 214 -72 352 -101 294 -61 831 -61 1115 1 133 29 282 71 352 101 17
7 34 13 38 13 9 0 131 54 205 91 19 9 61 31 93 48 l57 31 704 0 704 0 6 -31
c3 -17 6 -54 6 -81 0 -27 7 -65 15 -85 8 -19 15 -42 15 -50 0 -36 58 -148 116
-224 98 -128 267 -247 395 -277 24 -6 62 -15 84 -21 69 -18 217 -13 308 10
292 76 481 265 571 570 23 81 22 263 -4 362 -25 101 -78 208 -138 282 -69 86
-69 88 -19 148 121 145 177 301 177 493 -1 253 -101 456 -302 611 -67 52 -203
123 -236 123 -11 0 -36 7 -55 15 -53 22 -282 21 -351 -2 -84 -27 -160 -56
-176 -68 -8 -5 -31 -19 -50 -29 -52 -29 -155 -123 -200 -182 -46 -61 -120
-201 -120 -227 0 -10 -5 -27 -11 -39 -6 -11 -14 -60 -19 -109 -5 -48 -11 -93
-15 -99 -9 -14 -411 -14 -420 0 -4 6 0 22 9 35 9 13 16 29 16 36 0 6 7 25 15
42 37 82 90 258 117 392 5 28 16 84 25 125 12 56 17 166 21 443 2 202 8 367
13 367 5 0 26 -19 46 -42 149 -167 257 -260 370 -317 128 -64 175 -75 323 -75
114 1 145 4 200 23 66 23 167 72 206 101 12 8 32 22 45 30 13 8 63 53 110 100
116 115 169 213 220 405 17 66 20 108 20 274 0 108 -5 219 -11 246 -6 28 -15
75 -19 106 -10 68 -39 191 -57 242 -8 20 -14 45 -14 55 0 9 -6 29 -14 44 -8
15 -17 42 -21 60 -4 18 -13 46 -20 63 -8 16 -23 55 -35 85 -11 30 -25 64 -30
75 -5 11 -28 65 -51 120 -76 177 -214 434 -339 630 -60 95 -160 226 -215 281
-45 46 -168 144 -181 144 -4 0 -15 6 -23 13 -9 7 -45 26 -81 41 -36 15 -74 31
-85 36 -11 5 -60 18 -109 30 -82 20 -106 22 -285 16 -108 -4 -210 -7 -227 -8
-22 -1 -52 14 -112 55 -45 31 -86 57 -91 57 -5 0 -11 4 -13 8 -1 4 -25 21 -53
37 -273 159 -579 285 -875 360 -30 8 -75 19 -100 25 -162 42 -219 52 -420 76
-69 8 -126 19 -128 24 -5 14 -869 14 -874 -1z m962 -244 c58 -9 130 -20 160
-26 30 -6 84 -14 120 -20 36 -5 76 -14 90 -19 14 -6 48 -14 75 -19 28 -5 64
-14 80 -20 17 -5 64 -20 105 -32 72 -20 103 -31 188 -63 129 -50 173 -68 222
-92 30 -14 64 -30 75 -35 11 -5 28 -13 38 -19 9 -5 25 -15 35 -20 9 -6 26 -14
37 -19 50 -22 206 -119 275 -171 106 -81 135 -94 184 -85 194 33 295 39 399
26 255 -34 425 -148 592 -395 41 -61 51 -75 85 -131 81 -131 129 -218 196
-355 66 -136 86 -178 114 -245 12 -27 26 -58 31 -67 5 -10 9 -23 9 -29 0 -6 7
-25 15 -42 17 -38 43 -109 56 -157 6 -19 14 -44 18 -55 10 -23 41 -146 65
-250 36 -163 45 -366 22 -515 -31 -196 -113 -323 -283 -436 -87 -58 -114 -70
-207 -89 -82 -17 -89 -17 -161 0 -84 19 -113 32 -200 90 -106 70 -247 223
-336 365 -57 91 -59 94 -69 117 -5 12 -21 40 -35 62 l-25 41 0 565 c0 628 2
609 -66 641 -30 14 -41 15 -75 5 -80 -24 -73 71 -80 -1176 -4 -726 -9 -1141
-17 -1200 -13 -105 -37 -231 -57 -295 -7 -25 -16 -61 -20 -80 -4 -19 -11 -39
-15 -45 -4 -5 -11 -26 -15 -45 -4 -19 -14 -44 -21 -55 -8 -11 -14 -25 -14 -32
0 -25 -161 -338 -187 -365 -7 -6 -13 -16 -13 -20 0 -30 -166 -235 -295 -363
-170 -169 -337 -290 -560 -405 -98 -50 -294 -130 -321 -130 -7 0 -28 -6 -46
-14 -37 -16 -172 -46 -319 -70 -134 -22 -624 -23 -753 0 -123 21 -272 53 -321
69 -102 35 -224 79 -260 95 -22 10 -47 21 -55 24 -8 4 -33 17 -55 29 -22 13
-65 37 -96 54 -243 134 -501 366 -697 628 -90 121 -212 353 -273 520 -12 33
-28 75 -35 93 -8 18 -14 39 -14 48 0 8 -9 47 -20 87 -66 245 -70 347 -70 1533
0 723 -3 1030 -11 1053 -16 46 -73 74 -125 60 -22 -6 -49 -22 -61 -36 l-23
-26 0 -577 c0 -501 -2 -579 -15 -590 -8 -7 -15 -17 -15 -22 0 -21 -116 -207
-186 -298 -144 -188 -290 -297 -451 -335 -68 -16 -77 -16 -155 0 -97 19 -176
58 -270 132 -67 53 -158 160 -158 185 0 8 -4 18 -9 24 -23 23 -52 139 -63 247
-17 179 1 361 59 582 20 78 53 185 64 210 11 25 37 100 50 142 5 18 16 45 24
60 8 15 15 31 15 35 0 17 152 330 207 428 14 25 36 65 50 90 30 57 114 189
175 277 49 71 204 227 241 244 12 5 40 20 63 32 84 48 250 86 374 86 49 0 173
-15 282 -35 20 -3 47 -4 60 -1 18 5 118 75 193 135 22 18 205 122 280 160 108
54 173 83 285 127 52 20 106 41 120 47 14 6 48 17 75 24 28 8 82 24 120 35 87
25 170 45 260 64 115 24 317 55 361 55 l28 0 -21 -20 c-12 -10 -46 -35 -76
-54 -193 -124 -385 -311 -520 -509 -156 -228 -155 -282 3 -133 25 23 83 72
130 109 47 36 119 98 161 139 80 77 132 123 175 154 15 10 38 28 53 40 23 19
88 62 133 89 136 81 183 80 100 -1 -114 -112 -240 -282 -313 -421 -42 -78 -8
-69 101 27 87 76 95 83 121 100 35 24 89 69 164 141 156 148 214 193 231 177
3 -4 -13 -42 -37 -85 -98 -178 -118 -233 -87 -233 13 0 257 246 396 399 95
104 82 100 242 76z m-3906 -4110 c11 -8 30 -15 42 -15 13 0 29 -7 38 -15 8 -8
18 -15 22 -15 16 0 114 -72 136 -100 13 -17 33 -42 46 -57 12 -14 22 -32 22
-40 0 -7 7 -16 15 -19 8 -4 15 -15 15 -26 0 -10 7 -33 16 -51 14 -25 17 -64
18 -193 2 -246 -24 -234 476 -234 294 0 370 -3 370 -13 0 -7 9 -20 20 -30 11
-9 20 -23 20 -31 0 -8 3 -16 8 -18 4 -1 24 -28 45 -58 83 -123 155 -207 297
-347 l85 -83 -627 0 -627 0 -26 -27 c-40 -42 -44 -59 -43 -216 1 -114 -2 -154
-14 -179 -9 -18 -26 -55 -39 -83 -31 -69 -149 -185 -219 -217 -101 -46 -125
-52 -227 -56 -74 -2 -109 1 -130 11 -15 8 -45 17 -65 21 -21 4 -38 10 -38 15
0 4 -17 15 -37 24 -43 19 -149 121 -174 166 -9 17 -21 36 -26 43 -5 7 -19 43
-31 81 -27 82 -30 246 -7 287 8 14 14 34 15 45 1 44 119 204 171 230 14 8 42
31 62 52 34 34 37 42 37 93 0 63 -11 78 -112 160 -30 25 -66 61 -79 80 -13 19
-26 37 -30 40 -10 9 -40 74 -60 132 -26 73 -22 235 6 313 44 118 160 256 236
280 13 4 29 14 37 21 7 8 21 14 30 14 9 1 28 7 42 15 36 20 257 20 284 0z
m7002 0 c16 -8 39 -15 50 -15 12 0 27 -7 34 -15 7 -8 18 -15 24 -15 32 0 206
-171 206 -202 0 -7 7 -21 15 -31 7 -11 17 -36 20 -58 4 -21 11 -39 16 -39 15
0 6 -238 -11 -280 -38 -100 -95 -186 -147 -225 -15 -11 -51 -43 -80 -71 -50
-48 -53 -54 -53 -101 0 -44 4 -54 38 -89 21 -21 61 -58 89 -81 47 -39 113
-122 113 -142 0 -5 7 -14 15 -21 8 -7 15 -22 15 -34 0 -11 7 -34 15 -50 11
-20 15 -60 15 -137 0 -107 -5 -129 -46 -212 -8 -16 -14 -33 -14 -39 0 -15 -67
-95 -109 -133 -19 -16 -40 -35 -46 -42 -7 -6 -27 -19 -46 -27 -19 -9 -41 -20
-49 -24 -43 -26 -95 -36 -192 -40 -86 -3 -112 0 -130 12 -12 9 -34 16 -49 16
-14 0 -38 9 -52 20 -14 11 -29 20 -34 20 -27 0 -170 140 -195 191 -60 124 -58
116 -58 285 l0 160 -32 34 -31 35 -608 5 -608 5 124 125 c69 69 134 140 146
158 12 19 31 44 43 55 27 28 86 115 86 128 0 5 5 9 10 9 6 0 14 8 18 18 4 9
16 31 27 49 l20 32 367 3 367 3 35 34 36 35 0 173 c0 106 4 173 10 173 5 0 13
12 16 28 8 34 57 116 97 162 41 47 121 110 140 110 8 0 20 7 27 15 7 8 22 15
34 15 11 1 32 7 46 15 36 20 237 20 276 0z"/>
<path d="M6902 7657 c-7 -8 -9 -29 -5 -51 11 -69 -62 -166 -126 -166 -11 0
-21 4 -21 9 0 5 -13 14 -30 21 -45 19 -77 -6 -86 -66 -12 -85 2 -234 27 -284
28 -54 94 -120 149 -149 60 -31 164 -29 229 4 46 23 121 96 121 119 1 6 9 29
20 51 16 33 19 62 20 161 0 120 0 122 -36 190 -41 80 -72 115 -130 149 -47 27
-115 33 -132 12z"/>
<path d="M9002 7657 c-7 -8 -9 -29 -5 -49 11 -69 -58 -168 -116 -168 -12 0
-35 10 -51 22 -25 18 -33 20 -55 10 -36 -17 -45 -49 -45 -167 0 -131 23 -197
91 -265 69 -69 116 -90 198 -90 54 0 80 6 120 26 53 26 131 111 131 142 0 10
7 26 15 36 11 15 15 51 15 147 0 116 -2 132 -25 176 -42 82 -79 127 -130 161
-54 35 -123 44 -143 19z"/>
<path d="M7720 6114 c-158 -28 -243 -49 -287 -69 -17 -8 -36 -15 -43 -15 -13
0 -162 -71 -170 -81 -3 -3 -19 -13 -35 -22 -50 -25 -158 -132 -182 -179 -51
-102 -56 -119 -51 -188 7 -97 52 -183 139 -264 73 -69 75 -70 200 -132 152
-75 325 -123 509 -142 25 -2 51 -9 58 -14 9 -8 12 -54 12 -167 0 -138 2 -160
20 -189 39 -64 133 -69 182 -10 27 33 27 34 30 203 l3 170 50 6 c90 11 239 38
270 48 17 6 62 20 100 32 318 99 535 332 486 524 -29 118 -67 173 -183 268
-45 37 -227 137 -249 137 -6 0 -25 6 -42 14 -46 19 -183 56 -209 56 -13 0 -55
7 -93 15 -90 19 -409 19 -515 -1z m-74 -279 c10 -8 25 -15 33 -15 21 0 61 -41
61 -61 0 -25 -39 -89 -55 -89 -7 0 -18 -6 -24 -14 -6 -8 -22 -16 -34 -19 -12
-3 -41 -12 -65 -21 -40 -15 -45 -15 -98 7 -34 13 -62 32 -71 48 -15 25 -15 30
0 61 18 39 82 88 114 88 11 0 34 7 49 15 37 19 65 19 90 0z"/>
<path d="M10155 3661 c-67 -40 -112 -114 -169 -279 -74 -213 -116 -484 -122
-782 l-4 -205 -64 -61 c-84 -81 -157 -111 -228 -94 -33 8 -54 21 -68 40 l-20
28 84 41 c152 73 213 173 204 330 -8 131 -61 191 -171 191 -74 0 -118 -20
-178 -82 -157 -160 -163 -532 -11 -658 117 -96 305 -74 437 51 30 29 57 50 59
48 1 -2 15 -26 30 -54 39 -73 84 -100 165 -100 74 1 109 16 173 73 23 20 43
33 45 27 12 -36 49 -78 78 -91 71 -29 133 -11 214 65 l45 41 45 -45 c56 -56
126 -80 211 -72 65 6 158 49 207 96 40 38 46 38 63 6 17 -32 92 -82 144 -96
112 -30 253 17 355 120 42 42 70 85 111 168 30 61 60 112 66 112 14 1 80 -131
90 -178 l6 -34 -41 6 c-89 12 -141 -27 -141 -105 0 -45 19 -78 60 -106 50 -34
134 -28 187 14 81 64 124 218 89 320 -9 26 -42 93 -73 147 -65 115 -69 144
-33 249 12 37 20 74 17 82 -15 39 -132 23 -155 -21 -6 -10 -33 -81 -62 -158
-105 -288 -203 -417 -344 -456 -61 -17 -157 22 -156 64 0 6 35 28 78 49 141
67 195 145 200 293 3 78 0 96 -20 135 -33 64 -76 90 -152 90 -164 0 -283 -163
-294 -402 l-5 -108 -44 -41 c-81 -74 -174 -92 -232 -44 -43 37 -54 81 -49 198
4 111 27 182 70 217 55 46 82 17 72 -79 -8 -81 2 -101 47 -101 110 0 123 275
15 341 -42 25 -125 25 -175 -1 -120 -61 -199 -221 -203 -410 -1 -73 -5 -90
-26 -120 -57 -81 -104 -88 -123 -18 -12 46 -8 91 27 318 36 234 34 250 -39
250 -54 0 -73 -13 -91 -62 -19 -53 -52 -245 -61 -355 -7 -78 -9 -85 -48 -129
-41 -47 -88 -74 -127 -74 -30 0 -67 41 -80 89 -10 36 -8 46 9 74 38 62 130
254 169 353 97 242 133 395 139 585 6 169 -7 236 -58 294 -26 29 -38 35 -73
35 -22 0 -55 -8 -71 -19z m71 -174 c19 -59 3 -259 -32 -407 -34 -143 -146
-440 -166 -440 -13 0 -4 130 23 336 33 261 85 481 124 524 20 22 42 16 51 -13z
m-610 -802 c23 -36 14 -105 -20 -150 -23 -30 -109 -85 -132 -85 -4 0 -4 28 -2
63 12 144 104 248 154 172z m1806 8 c27 -24 24 -101 -5 -144 -24 -35 -87 -83
-124 -94 -21 -6 -23 -3 -23 35 0 56 36 159 68 193 29 31 57 34 84 10z"/>
<path d="M5775 3555 c-118 -63 -205 -256 -260 -575 -9 -52 -22 -98 -28 -102
-7 -4 -31 -8 -53 -8 -50 0 -65 -15 -72 -75 -7 -66 15 -95 73 -95 l45 0 0 -121
0 -121 -55 -78 c-104 -148 -165 -170 -165 -60 0 25 12 133 27 242 33 238 31
248 -46 248 -45 0 -51 3 -63 28 -30 62 -159 29 -251 -64 -139 -141 -201 -439
-124 -597 38 -76 76 -102 149 -102 65 0 94 17 145 83 l31 41 26 -44 c39 -66
72 -88 124 -82 23 2 57 15 75 27 29 20 103 102 141 155 13 18 16 16 41 -38 50
-104 132 -154 240 -145 61 5 110 28 158 73 20 19 39 35 41 35 2 0 13 -16 25
-35 42 -72 118 -93 197 -55 40 20 116 93 160 155 l21 30 20 -46 c44 -100 125
-158 218 -159 76 0 118 16 173 65 l50 45 22 -33 c34 -50 68 -70 124 -75 61 -5
103 19 151 85 16 23 32 42 35 42 3 0 14 -19 25 -42 23 -49 75 -87 118 -87 80
0 192 119 287 303 30 59 59 105 64 104 18 -6 75 -121 82 -164 l6 -42 -60 2
c-72 2 -96 -15 -112 -75 -15 -54 13 -118 63 -141 137 -65 282 68 280 258 -1
70 -14 105 -88 236 -62 108 -66 134 -35 225 12 32 19 70 18 83 -6 54 -118 48
-150 -7 -10 -16 -36 -83 -59 -148 -49 -140 -92 -229 -165 -341 -55 -86 -90
-118 -118 -107 -34 13 -33 79 5 324 32 212 27 232 -55 232 -40 0 -47 3 -58 26
-11 23 -20 27 -63 30 -62 3 -115 -23 -186 -93 -83 -82 -159 -268 -159 -390 0
-49 -74 -121 -133 -130 -89 -13 -131 30 -153 159 -8 47 -13 128 -12 183 l3 98
120 5 c124 5 152 14 179 52 17 24 22 103 7 112 -4 3 -43 7 -85 8 -43 1 -79 5
-81 8 -2 4 12 29 31 56 125 173 168 422 99 568 -48 100 -158 78 -246 -51 -63
-90 -132 -306 -159 -490 -7 -47 -17 -83 -24 -84 -6 -1 -29 -3 -51 -5 -58 -5
-78 -34 -73 -102 5 -62 16 -72 76 -72 l42 0 0 -120 0 -120 -60 -84 c-90 -126
-129 -150 -158 -96 -18 34 -11 142 23 363 34 218 32 230 -47 225 -41 -2 -55
-8 -69 -28 -24 -32 -55 -182 -71 -339 -12 -121 -13 -126 -50 -172 -49 -62
-110 -87 -168 -70 -45 13 -65 39 -86 106 -16 54 -30 269 -20 309 l6 26 106 0
c109 0 155 11 185 46 21 24 29 72 18 101 -8 21 -14 23 -87 23 -43 0 -82 3 -85
6 -4 4 9 28 28 54 92 125 142 294 131 444 -6 78 -31 151 -61 176 -23 19 -78
22 -110 5z m39 -171 c11 -29 6 -150 -9 -209 -27 -106 -120 -274 -140 -253 -6
5 40 285 56 343 22 78 51 135 69 135 10 0 21 -7 24 -16z m870 -6 c30 -112 -33
-334 -125 -439 l-29 -34 6 55 c7 69 42 264 55 310 32 111 78 164 93 108z
m-1542 -693 c-11 -106 -57 -347 -72 -382 -10 -23 -30 -49 -44 -58 -24 -16 -28
-16 -51 -1 -14 9 -28 28 -31 42 -10 39 2 183 20 241 21 66 72 141 115 171 46
30 67 26 63 -13z m2042 27 c9 -14 -54 -365 -73 -408 -11 -23 -31 -50 -45 -59
-24 -16 -28 -16 -51 -1 -32 21 -39 51 -32 150 8 135 61 251 136 302 37 25 56
30 65 16z"/>
<path d="M4329 3507 c-95 -29 -158 -65 -233 -136 -145 -137 -248 -383 -277
-661 -15 -148 -6 -445 16 -524 35 -124 101 -222 178 -263 49 -26 144 -24 184
5 61 43 81 105 120 378 19 137 36 250 37 251 0 1 35 6 75 12 191 26 348 167
407 366 25 83 25 240 1 320 -42 137 -143 232 -274 260 -92 20 -145 18 -234 -8z
m207 -188 c85 -41 131 -140 121 -262 -11 -133 -50 -215 -129 -274 -36 -26
-134 -60 -144 -50 -4 3 3 75 15 160 27 197 27 251 1 277 -39 39 -127 17 -149
-37 -6 -15 -23 -111 -39 -213 l-27 -185 -46 0 c-55 0 -76 -15 -85 -60 -9 -49
13 -86 61 -104 22 -8 42 -16 43 -17 4 -3 -20 -197 -39 -319 -18 -112 -45 -148
-83 -109 -104 103 -110 538 -13 834 65 197 162 322 284 366 60 21 179 18 229
-7z"/>
<path d="M8880 3515 c-292 -38 -430 -136 -461 -327 -11 -67 -6 -116 18 -191
26 -83 107 -101 156 -35 19 25 19 27 1 74 -25 66 -24 146 2 181 28 37 117 81
182 89 29 3 55 4 58 1 6 -6 -25 -417 -32 -429 -3 -4 -29 -8 -59 -8 -46 0 -56
-4 -74 -26 -15 -19 -21 -41 -21 -73 1 -64 19 -84 83 -91 l52 -5 -3 -50 c-5
-92 -24 -199 -43 -252 -24 -64 -84 -128 -129 -136 -71 -15 -123 19 -213 136
-50 66 -96 41 -97 -51 0 -68 20 -110 79 -165 125 -117 320 -115 440 4 22 23
52 64 66 92 34 70 73 227 82 334 l8 88 143 5 c142 5 144 5 168 33 29 34 34
116 8 141 -17 17 -20 18 -176 18 -60 0 -111 4 -114 9 -5 9 6 197 22 377 l6 62
141 0 c78 0 186 -5 240 -12 93 -11 98 -11 118 8 27 27 40 86 28 129 -7 26 -17
36 -42 44 -106 33 -469 49 -637 26z"/>
<path d="M6091 3237 c-43 -22 -66 -64 -66 -121 0 -66 22 -101 75 -117 86 -26
160 38 160 138 0 47 -4 59 -29 84 -24 23 -38 29 -73 29 -24 0 -54 -6 -67 -13z"/>
<path d="M10422 3236 c-65 -35 -85 -147 -36 -205 33 -40 81 -49 130 -25 56 28
76 61 76 129 1 54 -2 61 -31 87 -35 31 -97 38 -139 14z"/>
<path d="M5300 1610 c-1057 -4 -1390 -8 -1406 -17 -31 -18 -54 -58 -54 -95 0
-33 35 -94 59 -103 7 -3 627 -5 1377 -5 1191 0 1369 -2 1400 -15 20 -8 66 -43
103 -78 36 -35 107 -102 156 -149 50 -47 116 -110 148 -141 64 -61 285 -268
332 -311 17 -15 106 -101 199 -189 93 -89 194 -186 224 -215 51 -48 59 -52
104 -52 l49 0 127 123 c70 67 178 172 242 234 63 61 149 145 191 185 42 40
192 186 333 323 141 138 271 258 288 268 31 16 119 17 1446 17 l1414 0 28 30
c43 46 47 83 16 130 -15 23 -38 42 -58 49 -38 12 -4380 19 -6718 11z m3453
-259 c14 -5 -26 -49 -208 -226 -125 -121 -273 -265 -329 -320 -210 -204 -264
-255 -274 -255 -6 0 -35 24 -65 53 -74 71 -288 272 -361 338 -32 30 -98 91
-145 137 -47 45 -86 82 -87 82 -9 0 -192 188 -187 193 9 9 1632 7 1656 -2z"/>
<path d="M9203 3 c15 -2 37 -2 50 0 12 2 0 4 -28 4 -27 0 -38 -2 -22 -4z"/>
</g>
</svg>
